<svg id="visual" viewBox="0 0 960 1080" width="960" height="1080" xmlns="http://www.w3.org/2000/svg" xmlns:xlink="http://www.w3.org/1999/xlink" version="1.1"><path d="M0 939L22.8 935C45.7 931 91.3 923 137 921.5C182.7 920 228.3 925 274 926.3C319.7 927.7 365.3 925.3 411.2 924.8C457 924.3 503 925.7 548.8 925.5C594.7 925.3 640.3 923.7 686 925.7C731.7 927.7 777.3 933.3 823 938C868.7 942.7 914.3 946.3 937.2 948.2L960 950L960 1081L937.2 1081C914.3 1081 868.7 1081 823 1081C777.3 1081 731.7 1081 686 1081C640.3 1081 594.7 1081 548.8 1081C503 1081 457 1081 411.2 1081C365.3 1081 319.7 1081 274 1081C228.3 1081 182.7 1081 137 1081C91.3 1081 45.7 1081 22.8 1081L0 1081Z" fill="#0d9488"></path><path d="M0 989L22.8 981.3C45.7 973.7 91.3 958.3 137 958C182.7 957.7 228.3 972.3 274 971.8C319.7 971.3 365.3 955.7 411.2 951.3C457 947 503 954 548.8 952.7C594.7 951.3 640.3 941.7 686 943.8C731.7 946 777.3 960 823 962C868.7 964 914.3 954 937.2 949L960 944L960 1081L937.2 1081C914.3 1081 868.7 1081 823 1081C777.3 1081 731.7 1081 686 1081C640.3 1081 594.7 1081 548.8 1081C503 1081 457 1081 411.2 1081C365.3 1081 319.7 1081 274 1081C228.3 1081 182.7 1081 137 1081C91.3 1081 45.7 1081 22.8 1081L0 1081Z" fill="#00828b"></path><path d="M0 997L22.8 998.2C45.7 999.3 91.3 1001.7 137 999C182.7 996.3 228.3 988.7 274 982.3C319.7 976 365.3 971 411.2 976.7C457 982.3 503 998.7 548.8 1000.3C594.7 1002 640.3 989 686 988.2C731.7 987.3 777.3 998.7 823 1004.8C868.7 1011 914.3 1012 937.2 1012.5L960 1013L960 1081L937.2 1081C914.3 1081 868.7 1081 823 1081C777.3 1081 731.7 1081 686 1081C640.3 1081 594.7 1081 548.8 1081C503 1081 457 1081 411.2 1081C365.3 1081 319.7 1081 274 1081C228.3 1081 182.7 1081 137 1081C91.3 1081 45.7 1081 22.8 1081L0 1081Z" fill="#007086"></path><path d="M0 1032L22.8 1027.7C45.7 1023.3 91.3 1014.7 137 1013.7C182.7 1012.7 228.3 1019.3 274 1019.3C319.7 1019.3 365.3 1012.7 411.2 1011C457 1009.3 503 1012.7 548.8 1011C594.7 1009.3 640.3 1002.7 686 1003.8C731.7 1005 777.3 1014 823 1015.3C868.7 1016.7 914.3 1010.3 937.2 1007.2L960 1004L960 1081L937.2 1081C914.3 1081 868.7 1081 823 1081C777.3 1081 731.7 1081 686 1081C640.3 1081 594.7 1081 548.8 1081C503 1081 457 1081 411.2 1081C365.3 1081 319.7 1081 274 1081C228.3 1081 182.7 1081 137 1081C91.3 1081 45.7 1081 22.8 1081L0 1081Z" fill="#005d7c"></path><path d="M0 1042L22.8 1040.3C45.7 1038.7 91.3 1035.3 137 1033.8C182.7 1032.3 228.3 1032.7 274 1036C319.7 1039.3 365.3 1045.7 411.2 1046.3C457 1047 503 1042 548.8 1040.8C594.7 1039.7 640.3 1042.3 686 1044.8C731.7 1047.3 777.3 1049.7 823 1048.7C868.7 1047.7 914.3 1043.3 937.2 1041.2L960 1039L960 1081L937.2 1081C914.3 1081 868.7 1081 823 1081C777.3 1081 731.7 1081 686 1081C640.3 1081 594.7 1081 548.8 1081C503 1081 457 1081 411.2 1081C365.3 1081 319.7 1081 274 1081C228.3 1081 182.7 1081 137 1081C91.3 1081 45.7 1081 22.8 1081L0 1081Z" fill="#0c4a6e"></path></svg>